<svg width="181" height="85" viewBox="0 0 181 85" fill="none" xmlns="http://www.w3.org/2000/svg">
<rect width="180" height="81" transform="translate(0.691406 2)" fill="white"/>
<path fill-rule="evenodd" clip-rule="evenodd" d="M82.3295 51.049L75.726 41.1777H73.8882V57.5529H76.0561V45.3408L81.668 53.7475H82.991L88.6029 45.3408V57.5529H90.7709V41.1777H88.9331L82.3295 51.049Z" fill="#424B5A"/>
<path fill-rule="evenodd" clip-rule="evenodd" d="M102.2 41.1777L95.0654 57.5529H97.4161L99.0768 53.6552H107.619L109.28 57.5529H111.608L104.496 41.1777H102.2ZM103.337 43.5898C103.384 43.7082 103.431 43.8237 103.484 43.9444L106.76 51.6254H99.9357L103.188 43.9461C103.243 43.8239 103.29 43.7083 103.337 43.5898Z" fill="#424B5A"/>
<path fill-rule="evenodd" clip-rule="evenodd" d="M126.121 55.1964C125.356 55.551 124.32 55.7535 123.261 55.7535C121.659 55.7535 116.434 55.2928 116.434 49.3652C116.434 44.6497 120.087 42.9765 123.214 42.9765C124.933 42.9765 126.533 43.388 127.719 44.1352L127.896 44.2466V42.0288L127.832 41.9969C126.419 41.2901 124.681 40.9009 122.938 40.9009C120.663 40.9009 118.542 41.6531 116.964 43.019C115.184 44.5599 114.243 46.7543 114.243 49.3652C114.243 50.839 114.497 52.1579 114.999 53.2853C115.462 54.3246 116.138 55.2085 117.007 55.9125C118.963 57.4968 121.412 57.8294 123.122 57.8294C124.881 57.8294 126.692 57.4408 128.221 56.735L128.289 56.704V48.7422H126.121V55.1964Z" fill="#424B5A"/>
<path fill-rule="evenodd" clip-rule="evenodd" d="M145.659 53.8404L136.122 41.1777H134.15V57.5529H136.319V44.8675L145.855 57.5529H147.827V41.1777H145.659V53.8404Z" fill="#424B5A"/>
<path fill-rule="evenodd" clip-rule="evenodd" d="M161.584 41.2471L161.554 41.1777H159.257L152.123 57.5529H154.473L156.134 53.6552H164.677L166.337 57.5529H168.665L161.584 41.2471ZM160.394 43.5898C160.441 43.7082 160.488 43.8237 160.541 43.9444L163.817 51.6254H156.993L160.245 43.9461C160.3 43.8239 160.347 43.7083 160.394 43.5898Z" fill="#424B5A"/>
<path fill-rule="evenodd" clip-rule="evenodd" d="M49.0771 34.2117C48.549 34.2117 48.0303 34.2426 47.5187 34.3069C47.2023 33.9024 46.8549 33.5098 46.4813 33.1363L37.3451 24L28.2088 33.1363C27.8352 33.5098 27.4878 33.9024 27.1715 34.3069C26.66 34.2426 26.1413 34.2117 25.613 34.2117H12.6914V47.1333C12.6914 54.2568 18.4873 60.055 25.613 60.055H49.0771C56.203 60.055 61.9988 54.2568 61.9988 47.1333V34.2117H49.0771ZM25.613 38.7323H24.9231C23.686 43.0934 24.7803 47.9827 28.2088 51.4088L32.3344 55.5344L34.0141 57.2165L34.4734 57.6757H25.613C19.8006 57.6757 15.0707 52.9458 15.0707 47.1333V36.5909H25.7392C26.6076 36.6028 27.4522 36.717 28.2588 36.9288C31.1116 37.6663 33.5003 39.5745 34.8778 42.106C35.6916 43.6001 36.1554 45.3132 36.1554 47.1333V55.9912L29.8909 49.7267C26.9716 46.8074 26.1247 42.589 27.3547 38.9154C26.7931 38.7941 26.2103 38.7323 25.613 38.7323ZM37.3451 41.7182C36.9907 40.9521 36.5623 40.224 36.0674 39.5483C34.5209 37.4189 32.3392 35.7796 29.803 34.9088C29.8314 34.8779 29.86 34.8493 29.8909 34.8184L37.3451 27.3642L44.7992 34.8184C44.8301 34.8493 44.8587 34.8779 44.8873 34.9088C42.351 35.7796 40.1693 37.4189 38.6227 39.5483C38.1278 40.224 37.6996 40.9521 37.3451 41.7182ZM59.6195 47.1333C59.6195 52.9458 54.8896 57.6757 49.0771 57.6757H40.2168L40.676 57.2165L42.3558 55.5344L46.4813 51.4088C49.9098 47.9827 51.0043 43.0934 49.767 38.7323H49.0771C48.48 38.7323 47.897 38.7941 47.3355 38.9154C48.5656 42.589 47.7185 46.8074 44.7992 49.7267L38.5347 55.9912V47.1333C38.5347 45.3132 38.9987 43.6001 39.8124 42.106C41.19 39.5745 43.5787 37.6663 46.4314 36.9288C47.238 36.717 48.0825 36.6028 48.9509 36.5909H59.6195V47.1333Z" fill="#424B5A"/>
</svg>
