<svg width="181" height="85" viewBox="0 0 181 85" fill="none" xmlns="http://www.w3.org/2000/svg">
<path fill-rule="evenodd" clip-rule="evenodd" d="M59.9968 49.8708C57.2671 55.0338 51.8401 58.5598 45.6051 58.5598H29.7573V49.8708H59.9968Z" fill="#66DB48"/>
<path fill-rule="evenodd" clip-rule="evenodd" d="M59.9963 34.7135H28.3574V26.0247H45.605C51.84 26.0247 57.2666 29.5506 59.9963 34.7135Z" fill="#66DB48"/>
<path fill-rule="evenodd" clip-rule="evenodd" d="M61.6737 42.2925C61.6737 43.645 61.4966 44.9989 61.1458 46.3321H32.0547V38.2529H61.1458C61.4966 39.5857 61.6737 40.9395 61.6737 42.2925Z" fill="#66DB48"/>
<path fill-rule="evenodd" clip-rule="evenodd" d="M82.802 33.7107V47.9268H80.4836L80.3209 46.5438C79.548 47.7437 78.3074 48.1505 77.0872 48.1505C74.1382 48.1505 71.9214 46.1981 71.9214 42.9034C71.9214 39.446 74.0975 37.6562 77.0262 37.6562C78.0837 37.6562 79.7311 38.2257 80.3209 39.2629V33.7107H82.802ZM74.4026 42.9034C74.4026 44.6524 75.6635 45.8524 77.2498 45.8524C78.8159 45.8524 80.1582 44.7134 80.1582 42.9034C80.1582 41.1543 78.8159 39.9747 77.2498 39.9747C75.6635 39.9747 74.4026 41.0933 74.4026 42.9034Z" fill="#66DB48"/>
<path fill-rule="evenodd" clip-rule="evenodd" d="M95.0654 37.9001L88.9437 52.1162H86.2185L88.0895 47.764L84.083 37.9001H86.971L88.4963 42.2321L89.4522 45.059L90.4894 42.2931L92.3198 37.9001H95.0654Z" fill="#66DB48"/>
<path fill-rule="evenodd" clip-rule="evenodd" d="M103.749 47.9268V42.6797C103.749 41.1543 102.915 39.9951 101.329 39.9951C99.8038 39.9951 98.7665 41.2764 98.7665 42.8017V47.9268H96.3057V37.8799H98.5225L98.6851 39.2425C99.7021 38.246 100.719 37.7375 101.98 37.7375C104.339 37.7375 106.23 39.507 106.23 42.6593V47.9268H103.749Z" fill="#66DB48"/>
<path fill-rule="evenodd" clip-rule="evenodd" d="M116.318 37.9002H118.698V47.9268H116.359L116.237 46.4624C115.667 47.642 114.101 48.2115 112.983 48.2318C110.013 48.2521 107.817 46.4218 107.817 42.9033C107.817 39.4459 110.115 37.6358 113.044 37.6562C114.386 37.6562 115.667 38.2866 116.237 39.2832L116.318 37.9002ZM110.298 42.9033C110.298 44.8151 111.62 45.954 113.267 45.954C117.172 45.954 117.172 39.873 113.267 39.873C111.62 39.873 110.298 40.9916 110.298 42.9033Z" fill="#66DB48"/>
<path fill-rule="evenodd" clip-rule="evenodd" d="M127.658 47.9269V42.5577C127.658 41.2357 126.966 40.0358 125.604 40.0358C124.261 40.0358 123.468 41.2357 123.468 42.5577V47.9269H120.987V37.88H123.285L123.468 39.1003C123.997 38.0834 125.156 37.7173 126.112 37.7173C127.312 37.7173 128.512 38.2054 129.081 39.5884C129.976 38.1647 131.135 37.758 132.437 37.758C135.284 37.758 136.688 39.507 136.688 42.517V47.9269H134.206V42.517C134.206 41.195 133.657 40.0765 132.315 40.0765C130.973 40.0765 130.139 41.2357 130.139 42.5577V47.9269H127.658Z" fill="#66DB48"/>
<path fill-rule="evenodd" clip-rule="evenodd" d="M141.72 35.0733C141.72 37.0054 138.791 37.0054 138.791 35.0733C138.791 33.1412 141.72 33.1412 141.72 35.0733ZM139.015 47.9268H141.496V37.8596H139.015V47.9268Z" fill="#66DB48"/>
<path fill-rule="evenodd" clip-rule="evenodd" d="M152.336 46.6454C151.177 47.7844 149.957 48.2318 148.472 48.2318C145.564 48.2318 143.144 46.4827 143.144 42.9236C143.144 39.3645 145.564 37.6155 148.472 37.6155C149.896 37.6155 150.994 38.0222 152.092 39.1001L150.526 40.7475C149.936 40.2187 149.204 39.9543 148.513 39.9543C146.845 39.9543 145.625 41.1746 145.625 42.9236C145.625 44.8354 146.926 45.8523 148.472 45.8523C149.265 45.8523 150.058 45.6286 150.668 45.0184L152.336 46.6454Z" fill="#66DB48"/>
</svg>
