<svg width="181" height="85" viewBox="0 0 181 85" fill="none" xmlns="http://www.w3.org/2000/svg">
<path fill-rule="evenodd" clip-rule="evenodd" d="M54.269 27.2076L52.1904 34.3357H62.8816L36.5488 68.9845L43.4787 44.7302H36.9446L43.2805 16.021H76.7414L68.3269 27.2076H54.269Z" fill="#BC219A"/>
<path fill-rule="evenodd" clip-rule="evenodd" d="M82.4522 32.1995C83.6699 32.1995 84.5468 32.3943 85.2775 32.7353L84.8635 35.3902C84.4494 35.1953 83.8648 35.0492 83.1341 35.0492C81.892 35.0492 80.8202 35.4876 80.601 36.9003L80.4305 37.8989H83.9866L83.5482 40.7486H79.9678L78.5794 49.59H75.1939L76.6066 40.7486H74.585L75.0477 37.8989H77.045L77.2642 36.5593C77.8 33.125 80.26 32.1995 82.4522 32.1995Z" fill="#BC219A"/>
<path fill-rule="evenodd" clip-rule="evenodd" d="M97.1877 37.8989L95.3366 49.5901H92.3651L92.6087 48.08C91.6101 49.2247 90.1974 49.9311 88.5655 49.9311C85.5453 49.9311 84.0108 47.739 84.4492 45.0111L85.5697 37.8989H88.9309L87.8592 44.7918C87.5912 46.375 88.3707 47.0083 89.5885 47.0083C90.9037 47.0083 91.9998 46.2289 92.6331 45.4495L93.8265 37.8989H97.1877Z" fill="#BC219A"/>
<path fill-rule="evenodd" clip-rule="evenodd" d="M103.131 55.2895C101.085 55.2895 99.3555 54.8024 98.1133 54.096L98.5761 51.2463C99.7452 52.05 101.182 52.4397 102.814 52.4397C104.909 52.4397 106.76 51.5873 107.125 49.3221L107.296 48.2504C106.662 49.0298 105.396 49.931 103.326 49.931C99.6234 49.931 97.9428 46.8378 98.4787 43.5252C98.9658 40.4563 101.401 37.5579 104.982 37.5579C106.955 37.5579 108.246 38.4104 108.976 39.75L109.293 37.8989H112.313L110.511 49.3708C109.829 53.6576 106.565 55.2895 103.131 55.2895ZM104.275 47.0813C105.859 47.0813 107.125 46.1314 107.783 45.084L108.246 42.2343C107.953 41.2357 107.003 40.4076 105.639 40.4076C103.618 40.4076 102.157 41.8446 101.84 43.8419C101.572 45.5468 102.424 47.0813 104.275 47.0813Z" fill="#BC219A"/>
<path fill-rule="evenodd" clip-rule="evenodd" d="M113.36 49.59L115.211 37.8989H118.597L116.746 49.59H113.36ZM117.355 35.9747C116.234 35.9747 115.333 35.2684 115.552 33.8313C115.747 32.6135 116.673 32.1021 117.671 32.1021C118.816 32.1021 119.693 32.8327 119.474 34.2454C119.279 35.4632 118.353 35.9747 117.355 35.9747Z" fill="#BC219A"/>
<path fill-rule="evenodd" clip-rule="evenodd" d="M124.808 49.931C121.106 49.931 119.425 46.8378 119.961 43.5252C120.448 40.4563 122.835 37.5579 126.464 37.5579C128.607 37.5579 129.874 38.7027 130.483 39.8474L130.8 37.8989H133.771L131.92 49.59H128.948L129.216 47.8607C128.315 49.0055 126.878 49.931 124.808 49.931ZM125.758 47.0813C127.341 47.0813 128.607 46.0827 129.265 45.0353L129.728 42.3074C129.46 41.2601 128.51 40.4076 127.122 40.4076C125.1 40.4076 123.639 41.8934 123.322 43.8175C123.054 45.5468 123.907 47.0813 125.758 47.0813Z" fill="#BC219A"/>
<path fill-rule="evenodd" clip-rule="evenodd" d="M141.444 33.6851L140.786 37.8987H144.488L144.026 40.7485H140.323L139.568 45.4249C139.373 46.6671 139.86 47.0812 141.103 47.0812C141.931 47.0812 142.662 46.935 143.368 46.6428L142.929 49.4194C142.199 49.7361 141.054 49.9309 139.885 49.9309C137.668 49.9309 135.696 48.7861 136.158 45.8877L136.962 40.7485H134.989L135.452 37.8987H137.401L137.961 34.5132L141.444 33.6851Z" fill="#BC219A"/>
</svg>
