<svg width="181" height="85" viewBox="0 0 181 85" fill="none" xmlns="http://www.w3.org/2000/svg">
<path fill-rule="evenodd" clip-rule="evenodd" d="M29.0825 56.3247C30.2686 58.381 32.394 59.6086 34.7679 59.6086H34.768C37.46 59.6086 39.9697 58.161 41.3176 55.8306L44.4711 50.3784H28.769C27.909 52.2946 28.0134 54.4713 29.0825 56.3247Z" fill="#FF5A14"/>
<path fill-rule="evenodd" clip-rule="evenodd" d="M55.4266 55.8255C56.7739 58.159 59.2847 59.6086 61.9792 59.6086H61.9808C64.3549 59.6086 66.4809 58.3812 67.668 56.3251C68.7377 54.4723 68.8433 52.2953 67.985 50.3784H52.2817L55.4266 55.8255Z" fill="#FF5A14"/>
<path fill-rule="evenodd" clip-rule="evenodd" d="M66.5934 47.8972L60.9545 38.1333H35.8005L30.1616 47.8972H66.5934Z" fill="#FF5A14"/>
<path fill-rule="evenodd" clip-rule="evenodd" d="M48.6831 26.0247H48.0839C44.8229 26.0247 41.784 27.7789 40.1531 30.6026L37.2344 35.652H59.5238L56.6133 30.6016C54.983 27.7789 51.9441 26.0247 48.6831 26.0247Z" fill="#FF5A14"/>
<path fill-rule="evenodd" clip-rule="evenodd" d="M78.8091 46.5802C78.8091 44.6289 79.6728 43.1894 81.3042 42.5496C82.04 42.2617 83.3196 42.1017 85.1429 42.1017H86.1026C86.9024 42.1017 87.6061 42.1337 88.2458 42.1977V40.3743C88.2458 38.0391 87.0623 37.2394 84.3752 37.2394C83.2556 37.2394 82.168 37.3993 81.0803 37.7192C80.6005 37.8472 80.3446 37.8472 80.2486 37.4633L80.0886 36.7915C79.9607 36.4077 80.0567 36.1837 80.4405 36.0878C81.816 35.6719 83.1916 35.448 84.5351 35.448C88.6298 35.448 90.3252 36.8235 90.3252 40.1504V51.0907C90.3252 51.3466 90.2612 51.4106 89.9733 51.4106H88.9177C88.6298 51.4106 88.5018 51.3146 88.5018 51.0907L88.4378 50.0031H88.3738C87.6701 51.1227 86.5504 51.6985 84.983 51.6985H83.3835C81.976 51.6985 80.6964 51.2826 79.9607 50.5469C79.193 49.7792 78.8091 48.7875 78.8091 47.5399V46.5802ZM80.9204 47.284C80.9204 48.2757 81.1443 48.9474 81.5921 49.3633C82.008 49.7472 82.6478 49.9391 83.5435 49.9391H84.855C86.9983 49.9391 88.2458 48.7875 88.2458 46.6122V43.9571C87.7341 43.8931 87.0943 43.8611 86.3265 43.8611H84.5351C83.1916 43.8611 82.2639 44.0851 81.7201 44.5009C81.1763 44.9168 80.9204 45.6205 80.9204 46.6122V47.284Z" fill="#FF5A14"/>
<path fill-rule="evenodd" clip-rule="evenodd" d="M94.6753 30.1058C94.6753 29.8819 94.8032 29.7539 95.0591 29.7539H96.3707C96.6266 29.7539 96.7546 29.8819 96.7546 30.1058V47.22C96.7546 48.3716 96.7866 48.7555 97.0424 49.2353C97.2024 49.4592 97.5863 49.5872 98.1941 49.5872H99.0578C99.2497 49.5872 99.4417 49.6192 99.4417 49.9391V51.0267C99.4417 51.2826 99.3457 51.4106 99.1217 51.4106H97.9062C96.7546 51.4106 95.9228 51.1547 95.443 50.6748C94.9312 50.131 94.6753 49.1394 94.6753 47.7318V30.1058Z" fill="#FF5A14"/>
<path fill-rule="evenodd" clip-rule="evenodd" d="M102.576 31.5133C102.576 30.4896 103.152 30.0098 104.048 30.0098H104.176C105.103 30.0098 105.583 30.5216 105.583 31.5133V31.7052C105.583 32.7289 105.039 33.2407 104.176 33.2407H104.048C102.992 33.2407 102.576 32.7609 102.576 31.7052V31.5133ZM103.056 36.0877C103.056 35.8638 103.184 35.7359 103.44 35.7359H104.751C105.007 35.7359 105.135 35.8638 105.135 36.0877V51.1546C105.135 51.3146 105.039 51.4105 104.847 51.4105H103.312C103.152 51.4105 103.056 51.3146 103.056 51.1546V36.0877Z" fill="#FF5A14"/>
<path fill-rule="evenodd" clip-rule="evenodd" d="M109.198 42.9974C109.198 37.3354 111.085 35.448 115.34 35.448C117.387 35.448 118.826 36.0878 119.69 37.3673H119.754L119.914 36.1197C119.946 35.8638 120.106 35.7359 120.394 35.7359H121.162C121.514 35.7359 121.61 35.7999 121.61 36.1517V56.7208C121.61 56.9447 121.514 57.0726 121.29 57.0726H119.85C119.626 57.0726 119.53 56.9447 119.53 56.7208V50.0031H119.466C118.571 51.1227 117.163 51.6985 115.244 51.6985C110.893 51.6985 109.198 49.6192 109.198 44.5009V42.9974ZM111.309 44.341C111.309 46.5162 111.661 48.0197 112.365 48.8195C113.036 49.5872 113.932 49.9071 115.5 49.9071C118.059 49.9071 119.53 48.5955 119.53 46.0684V41.334C119.53 38.7429 118.059 37.2394 115.372 37.2394C113.964 37.2394 113.132 37.5273 112.493 38.1991C111.693 39.0628 111.309 40.7582 111.309 43.2853V44.341Z" fill="#FF5A14"/>
<path fill-rule="evenodd" clip-rule="evenodd" d="M125.768 36.2477C125.768 35.9598 125.959 35.7358 126.215 35.7358H127.399C127.687 35.7358 127.847 35.8958 127.847 36.1837V46.6442C127.847 47.9237 128.071 48.6275 128.679 49.1393C129.222 49.6511 130.182 49.907 131.558 49.907C132.869 49.907 133.861 49.6191 134.501 49.0113C135.044 48.4995 135.236 47.9237 135.236 46.6442V36.1517C135.236 35.8958 135.396 35.7358 135.62 35.7358H136.964C137.188 35.7358 137.316 35.8638 137.316 36.1517V46.9C137.316 48.5315 136.836 49.7471 135.908 50.5468C134.98 51.3465 133.733 51.6984 131.558 51.6984C129.574 51.6984 128.135 51.3146 127.207 50.5468C126.247 49.7471 125.768 48.5315 125.768 46.9V36.2477Z" fill="#FF5A14"/>
<path fill-rule="evenodd" clip-rule="evenodd" d="M140.643 46.5802C140.643 44.6289 141.506 43.1894 143.138 42.5496C143.873 42.2617 145.153 42.1017 146.976 42.1017H147.936C148.736 42.1017 149.44 42.1337 150.079 42.1977V40.3743C150.079 38.0391 148.896 37.2394 146.209 37.2394C145.089 37.2394 144.001 37.3993 142.914 37.7192C142.434 37.8472 142.178 37.8472 142.082 37.4633L141.922 36.7915C141.794 36.4077 141.89 36.1837 142.274 36.0878C143.65 35.6719 145.025 35.448 146.369 35.448C150.463 35.448 152.159 36.8235 152.159 40.1504V51.0907C152.159 51.3466 152.095 51.4106 151.807 51.4106H150.751C150.463 51.4106 150.335 51.3146 150.335 51.0907L150.271 50.0031H150.207C149.504 51.1227 148.384 51.6985 146.816 51.6985H145.217C143.809 51.6985 142.53 51.2826 141.794 50.5469C141.026 49.7792 140.643 48.7875 140.643 47.5399V46.5802ZM142.754 47.284C142.754 48.2757 142.978 48.9474 143.426 49.3633C143.841 49.7472 144.481 49.9391 145.377 49.9391H146.689C148.832 49.9391 150.079 48.7875 150.079 46.6122V43.9571C149.568 43.8931 148.928 43.8611 148.16 43.8611H146.369C145.025 43.8611 144.097 44.0851 143.554 44.5009C143.01 44.9168 142.754 45.6205 142.754 46.6122V47.284Z" fill="#FF5A14"/>
</svg>
