<svg width="181" height="85" viewBox="0 0 181 85" fill="none" xmlns="http://www.w3.org/2000/svg">
<path fill-rule="evenodd" clip-rule="evenodd" d="M40.8643 57.4211V28.6888H58.4662V34.9979H48.4998V39.9803H57.8959V46.1296H48.4998V57.4211H40.8643ZM61.0765 57.4211V37.6096H67.6748V42.278C68.3581 40.5699 69.2824 39.2971 70.4602 38.4472C71.6393 37.5959 73.0664 37.1674 74.7401 37.1674C75.0156 37.1674 75.2966 37.1743 75.5777 37.1936C75.8587 37.2143 76.1397 37.2487 76.429 37.2887L75.7457 43.6376C75.3311 43.4971 74.9151 43.3966 74.5128 43.3305C74.1051 43.2685 73.7166 43.2354 73.3351 43.2354C71.6393 43.2354 70.3348 43.7575 69.4091 44.7961C68.4917 45.8348 68.0302 47.3073 68.0302 49.2166V57.4211H61.0765ZM91.4522 44.9642C91.3172 43.8388 90.8887 42.9337 90.1656 42.2505C89.4355 41.5686 88.5442 41.2256 87.4794 41.2256C86.3416 41.2256 85.431 41.5342 84.7533 42.1582C84.0838 42.7808 83.6348 43.7189 83.4075 44.9642H91.4522ZM98.3232 48.9011H83.2532C83.2669 50.4302 83.6609 51.6079 84.4323 52.4386C85.2092 53.2679 86.3002 53.6839 87.7136 53.6839C88.7784 53.6839 89.6696 53.4841 90.3997 53.0888C91.1229 52.6865 91.6794 52.097 92.061 51.3132L97.3176 53.4304C96.6881 54.9498 95.5778 56.1221 93.984 56.9458C92.382 57.7696 90.4259 58.1856 88.1089 58.1856C84.6541 58.1856 81.8798 57.2268 79.797 55.3121C77.7073 53.3891 76.6631 50.8641 76.6631 47.7234C76.6631 44.6363 77.7073 42.07 79.7901 40.0272C81.8798 37.9843 84.5191 36.9663 87.7067 36.9663C90.9893 36.9663 93.5818 37.9981 95.4772 40.0671C97.3727 42.1375 98.3232 44.9711 98.3232 48.5664V48.9011ZM99.2806 55.7749L100.734 50.4302C101.759 51.32 102.879 52.0019 104.102 52.4854C105.329 52.9607 106.561 53.2031 107.801 53.2031C108.678 53.2031 109.347 53.0612 109.803 52.7802C110.265 52.4992 110.492 52.0901 110.492 51.5542C110.492 50.6781 109.568 50.021 107.719 49.5858C107.117 49.4452 106.628 49.3171 106.266 49.2166C104.169 48.6408 102.655 47.8845 101.705 46.9464C100.76 46.0152 100.285 44.7961 100.285 43.3098C100.285 41.3813 101.008 39.8467 102.456 38.6951C103.902 37.5421 105.858 36.9663 108.329 36.9663C109.601 36.9663 110.894 37.1137 112.207 37.4085C113.519 37.7047 114.867 38.1593 116.239 38.775L114.786 43.5977C113.862 42.9682 112.918 42.4847 111.958 42.1582C111.002 41.829 110.051 41.6678 109.093 41.6678C108.295 41.6678 107.693 41.7959 107.285 42.0439C106.876 42.2918 106.674 42.6527 106.674 43.1211C106.674 43.825 107.591 44.4214 109.426 44.9105C109.849 45.0234 110.164 45.1116 110.372 45.1653C112.79 45.8554 114.472 46.6709 115.421 47.6021C116.367 48.5416 116.841 49.8075 116.841 51.3999C116.841 53.4235 116.066 55.0641 114.505 56.3094C112.951 57.5629 110.888 58.1856 108.329 58.1856C106.587 58.1856 104.972 57.9845 103.479 57.5891C101.986 57.1869 100.586 56.5849 99.2806 55.7749ZM119.366 57.4211V27H126.239V37.6771C126.239 38.3797 126.218 39.0367 126.179 39.6387C126.138 40.2421 126.084 40.7848 126.004 41.2669C126.88 39.7861 127.912 38.702 129.098 38.005C130.291 37.3148 131.711 36.9663 133.352 36.9663C134.637 36.9663 135.775 37.1743 136.774 37.5835C137.772 37.9981 138.588 38.5877 139.213 39.3646C139.741 40.0272 140.11 40.844 140.331 41.7959C140.551 42.7533 140.665 44.1804 140.665 46.0758V57.4211H133.673V46.8059C133.673 45.219 133.413 44.0729 132.896 43.3497C132.381 42.6334 131.556 42.2711 130.418 42.2711C128.965 42.2711 127.907 42.807 127.236 43.8787C126.573 44.9504 126.239 46.6916 126.239 49.1036V57.4211H119.366Z" fill="#424B5A"/>
<path fill-rule="evenodd" clip-rule="evenodd" d="M88.2054 34.1906C90.2138 30.4024 93.0377 28.9547 97.9472 29.0428C95.8823 34.3738 92.9937 36.3574 87.2756 36.2541C86.6337 34.2746 85.4931 32.561 83.5894 31.2538C84.0618 30.5374 84.5343 29.8211 85.0082 29.1034C86.7136 30.7041 87.6668 32.4164 88.2054 34.1906Z" fill="#424B5A"/>
</svg>
