<svg width="180" height="85" viewBox="0 0 180 85" fill="none" xmlns="http://www.w3.org/2000/svg">
<path fill-rule="evenodd" clip-rule="evenodd" d="M26.6811 56.719L43.8308 66.6204C45.4878 67.5771 47.5292 67.5771 49.1862 66.6204L66.336 56.719C67.9929 55.7623 69.0136 53.9944 69.0136 52.0811V32.2783C69.0136 30.365 67.9929 28.597 66.336 27.6404L49.1862 17.739C47.5292 16.7823 45.4878 16.7823 43.8308 17.739L26.6811 27.6404C25.0241 28.597 24.0034 30.365 24.0034 32.2783V52.0811C24.0034 53.9944 25.0241 55.7623 26.6811 56.719ZM50.4639 46.5566C46.7661 49.8983 47.2631 52.4444 49.6993 55.1401H49.6926C50.3842 55.9033 50.8091 56.9126 50.8091 58.0236C50.8091 60.3988 48.8837 62.3243 46.5085 62.3243C44.1334 62.3243 42.2079 60.3988 42.2079 58.0236C42.2079 56.9126 42.6328 55.9033 43.3244 55.1401H43.3178C45.754 52.4444 46.251 49.8983 42.5531 46.5566H42.5631C41.3661 45.4768 40.6092 43.9186 40.6092 42.1796C40.6092 40.4407 41.3661 38.8825 42.5631 37.8028H42.5531C46.251 34.461 45.754 31.915 43.3178 29.2192H43.3244C42.6328 28.456 42.2079 27.4467 42.2079 26.3357C42.2079 23.9606 44.1334 22.0351 46.5085 22.0351C48.8837 22.0351 50.8091 23.9606 50.8091 26.3357C50.8091 27.4467 50.3842 28.456 49.6926 29.2192H49.6993C47.2631 31.915 46.766 34.461 50.4639 37.8028H50.4539C51.6509 38.8825 52.4078 40.4407 52.4078 42.1796C52.4078 43.9186 51.6509 45.4768 50.4539 46.5566H50.4639ZM37.9006 46.4715C36.6123 45.046 35.8754 43.6613 36.0052 42.1797C35.8754 40.6981 36.6123 39.3134 37.9006 37.8879H37.894C38.5855 37.1247 39.0105 36.1155 39.0105 35.0044C39.0105 32.6292 37.085 30.7038 34.7099 30.7038C32.3347 30.7038 30.4093 32.6292 30.4093 35.0044C30.4093 36.1155 30.8342 37.1247 31.5257 37.8879H31.5191C32.8074 39.3134 33.5443 40.6981 33.4145 42.1797C33.5443 43.6613 32.8074 45.046 31.5191 46.4715H31.5257C30.8342 47.2347 30.4093 48.2439 30.4093 49.355C30.4093 51.7301 32.3347 53.6556 34.7099 53.6556C37.085 53.6556 39.0105 51.7301 39.0105 49.355C39.0105 48.2439 38.5855 47.2347 37.894 46.4715H37.9006ZM59.6028 42.1798C59.473 43.6614 60.2099 45.0461 61.4981 46.4716H61.4915C62.1831 47.2347 62.608 48.244 62.608 49.355C62.608 51.7302 60.6826 53.6557 58.3074 53.6557C55.9322 53.6557 54.0068 51.7302 54.0068 49.355C54.0068 48.244 54.4318 47.2347 55.1233 46.4716H55.1167C56.405 45.0461 57.1418 43.6614 57.012 42.1798C57.1418 40.6981 56.405 39.3135 55.1167 37.888H55.1233C54.4318 37.1248 54.0068 36.1155 54.0068 35.0045C54.0068 32.6293 55.9322 30.7039 58.3074 30.7039C60.6826 30.7039 62.608 32.6293 62.608 35.0045C62.608 36.1155 62.1831 37.1248 61.4915 37.888H61.4981C60.2099 39.3135 59.473 40.6981 59.6028 42.1798Z" fill="#3581FF"/>
<path fill-rule="evenodd" clip-rule="evenodd" d="M83.4209 32.8445V45.6331C83.4209 46.4779 83.7495 46.9707 84.4299 46.9707C84.8992 46.9707 85.3216 46.8064 85.744 46.5953L85.9082 49.1999C85.345 49.4345 84.2891 49.7396 83.1393 49.7396C81.3091 49.7396 80.1357 48.8479 80.1357 46.431V32.8445H83.4209Z" fill="#3581FF"/>
<path fill-rule="evenodd" clip-rule="evenodd" d="M99.6821 45.7272C99.6821 46.4312 99.8699 46.9708 100.527 46.9708C100.996 46.9708 101.372 46.8066 101.771 46.5954L101.911 49.2001C101.301 49.4816 100.292 49.7397 99.2363 49.7397C97.8518 49.7397 96.9836 49.1766 96.6316 47.9564C95.7869 48.9419 94.4259 49.7163 92.7364 49.7163C89.3104 49.7163 86.9873 47.0882 86.9873 43.4041C86.9873 39.6731 89.3104 37.0215 92.7364 37.0215C94.332 37.0215 95.5757 37.4673 96.397 38.2886V37.2326H99.6821V45.7272ZM96.397 40.9871C95.8338 40.4005 94.7544 39.8842 93.6515 39.8842C91.61 39.8842 90.3194 41.2922 90.3194 43.4041C90.3194 45.469 91.6335 46.8769 93.6515 46.8769C94.7309 46.8769 95.7399 46.3842 96.397 45.7741V40.9871Z" fill="#3581FF"/>
<path fill-rule="evenodd" clip-rule="evenodd" d="M110.875 49.7396C109.209 49.7396 108.012 49.2234 107.191 48.4021V49.505H103.906V32.8445H107.191V38.265C108.036 37.5141 109.303 37.0213 110.875 37.0213C114.324 37.0213 116.648 39.6495 116.648 43.357C116.648 47.0646 114.324 49.7396 110.875 49.7396ZM109.96 39.8841C108.857 39.8841 107.824 40.4003 107.191 41.0339V45.7505C107.754 46.3136 108.81 46.8768 109.96 46.8768C111.978 46.8768 113.292 45.4689 113.292 43.357C113.292 41.2686 111.978 39.8841 109.96 39.8841Z" fill="#3581FF"/>
<path fill-rule="evenodd" clip-rule="evenodd" d="M124.837 36.9041C128.685 36.9041 131.454 39.673 131.454 43.404C131.454 47.0881 128.685 49.8335 124.837 49.8335C121.036 49.8335 118.267 47.0881 118.267 43.404C118.267 39.673 121.036 36.9041 124.837 36.9041ZM124.837 46.8299C126.902 46.8299 128.286 45.3281 128.286 43.404C128.286 41.4329 126.902 39.9076 124.837 39.9076C122.819 39.9076 121.434 41.4329 121.434 43.404C121.434 45.3281 122.819 46.8299 124.837 46.8299Z" fill="#3581FF"/>
<path fill-rule="evenodd" clip-rule="evenodd" d="M134.809 41.034C134.809 40.3066 134.645 39.7904 133.965 39.7904C133.472 39.7904 132.909 40.0251 132.721 40.1424L132.58 37.5612C132.744 37.3969 133.965 37.0215 135.255 37.0215C136.663 37.0215 137.578 37.5847 137.93 38.8753C138.517 37.7254 139.409 37.0215 141.004 37.0215C142.154 37.0215 143.046 37.4438 143.21 37.7254L142.741 40.6821C142.553 40.424 141.614 40.0485 140.488 40.0485C138.916 40.0485 138.306 41.4095 138.094 42.8409V49.5051H134.809V41.034Z" fill="#3581FF"/>
<path fill-rule="evenodd" clip-rule="evenodd" d="M155.881 48.1675C154.614 49.1999 152.807 49.8335 150.719 49.8335C146.096 49.8335 144.031 47.0177 144.031 43.404C144.031 39.7433 146.566 36.9041 150.508 36.9041C154.239 36.9041 155.999 39.1802 155.999 42.0195C155.999 42.7704 155.881 43.9437 155.741 44.413H147.41C147.715 46.126 148.818 47.0881 150.813 47.0881C152.362 47.0881 153.793 46.4545 154.638 45.8209L155.881 48.1675ZM152.854 41.4563C152.854 40.4708 152.103 39.626 150.437 39.626C148.677 39.626 147.739 40.682 147.504 41.8787H152.831C152.854 41.7614 152.854 41.5737 152.854 41.4563Z" fill="#3581FF"/>
</svg>
