<svg width="83" height="87" viewBox="0 0 83 87" fill="none" xmlns="http://www.w3.org/2000/svg">
<path opacity="0.99" fill-rule="evenodd" clip-rule="evenodd" d="M19.8584 7.05176C29.369 7.02343 38.8793 7.05176 48.3897 7.13672C55.2793 14.3584 62.1689 21.5801 69.0586 28.8018C69.1667 43.7549 69.1667 58.708 69.0586 73.6611C68.2923 77.0699 66.2659 79.0806 62.9795 79.6934C48.6057 79.8067 34.2322 79.8067 19.8584 79.6934C16.572 79.0806 14.5456 77.0699 13.7793 73.6611C13.6712 53.497 13.6712 33.3331 13.7793 13.1689C14.5742 9.75816 16.6005 7.71909 19.8584 7.05176ZM44.9854 14.6982C50.6806 20.583 56.3544 26.5019 62.0068 32.4551C56.3333 32.54 50.6595 32.5684 44.9854 32.54C44.9854 26.5928 44.9854 20.6455 44.9854 14.6982ZM26.3428 50.7217C27.7552 50.6789 29.1602 50.7638 30.5576 50.9766C33.5518 51.9574 34.5515 54.0248 33.5566 57.1787C32.8743 58.6285 31.7665 59.5063 30.2334 59.8125C29.2288 60.0732 28.2292 60.1015 27.2344 59.8975C27.1533 61.6524 27.1264 63.4082 27.1533 65.165C26.1807 65.165 25.208 65.165 24.2354 65.165C24.2354 60.4638 24.2354 55.7628 24.2354 51.0615C24.9637 50.9806 25.6663 50.8675 26.3428 50.7217ZM38.1768 50.7217C40.334 50.566 42.4414 50.8209 44.499 51.4863C46.1725 52.2209 47.2802 53.4953 47.8223 55.3096C48.8601 61.2983 46.5095 64.6118 40.7705 65.25C39.2023 65.3224 37.6353 65.294 36.0693 65.165C36.0693 60.4638 36.0693 55.7628 36.0693 51.0615C36.7977 50.9806 37.5003 50.8675 38.1768 50.7217ZM50.335 50.8916C53.0908 50.8916 55.8467 50.8916 58.6025 50.8916C58.6025 51.7412 58.6025 52.5908 58.6025 53.4404C56.8193 53.4404 55.0361 53.4404 53.2529 53.4404C53.2529 54.5733 53.2529 55.706 53.2529 56.8389C54.928 56.8389 56.6032 56.8389 58.2783 56.8389C58.2783 57.6885 58.2783 58.5381 58.2783 59.3877C56.6032 59.3877 54.928 59.3877 53.2529 59.3877C53.2529 61.3134 53.2529 63.2393 53.2529 65.165C52.2803 65.165 51.3076 65.165 50.335 65.165C50.335 60.4072 50.335 55.6494 50.335 50.8916Z" fill="white"/>
<path opacity="0.917" fill-rule="evenodd" clip-rule="evenodd" d="M27.1533 53.1006C28.1411 53.0392 29.1137 53.1242 30.0713 53.3555C31.3667 54.6511 31.3667 55.9537 30.0713 57.2637C29.1328 57.6292 28.1602 57.7707 27.1533 57.6885C27.1533 56.1592 27.1533 54.6299 27.1533 53.1006Z" fill="white"/>
<path opacity="0.963" fill-rule="evenodd" clip-rule="evenodd" d="M39.3114 53.1005C44.121 52.9622 45.8773 55.3411 44.5799 60.2373C43.6847 62.0957 42.2258 63.0019 40.203 62.956C39.8635 62.9499 39.5393 62.8933 39.2303 62.7861C39.0974 59.5452 39.1244 56.3167 39.3114 53.1005Z" fill="white"/>
</svg>
