<svg width="57" height="57" viewBox="0 0 57 57" fill="none" xmlns="http://www.w3.org/2000/svg">
<g clip-path="url(#clip0_2007_1773)">
<path opacity="0.944" fill-rule="evenodd" clip-rule="evenodd" d="M24.8818 0.612303C27.7395 0.593751 30.5969 0.612306 33.4541 0.667967C35.143 0.986937 36.3306 1.91467 37.0166 3.45117C36.7733 4.49807 36.1424 4.83205 35.124 4.45312C34.6121 3.75577 33.9442 3.27336 33.1201 3.00586C30.6329 2.91311 28.1466 2.93167 25.6611 3.06152C28.7597 8.44238 31.8584 13.8233 34.957 19.2041C35.1896 19.6843 35.1339 20.1296 34.79 20.54C34.1964 20.9855 33.5656 21.3751 32.8974 21.709C35.9336 22.5423 38.9766 23.3401 42.0264 24.1025C42.8019 21.0916 43.5626 18.0857 44.3086 15.085C43.8539 15.3773 43.3901 15.6556 42.917 15.9199C42.4945 16.0131 42.0864 15.976 41.6924 15.8086C40.9543 14.772 40.3049 13.6772 39.7441 12.5244C39.5771 11.3555 40.0781 10.8545 41.2471 11.0215C41.4835 11.1464 41.6876 11.3134 41.8594 11.5225C42.1578 12.1207 42.5104 12.6774 42.917 13.1924C44.0031 12.5381 45.1164 11.9444 46.2568 11.4111C47.0125 11.4777 47.3836 11.8859 47.3701 12.6357C46.2589 17.1387 45.09 21.629 43.8633 26.1064C43.6192 26.5259 43.2481 26.7486 42.75 26.7744C38.1904 25.5761 33.6445 24.3329 29.1123 23.0449C28.6376 22.5809 28.5449 22.0427 28.834 21.4307C29.9596 20.6919 31.0915 19.9683 32.2295 19.2598C31.1957 17.4708 30.1751 15.671 29.168 13.8603C28.0176 15.8643 26.8671 17.8682 25.7168 19.8721C25.0607 20.439 24.3743 20.4575 23.6572 19.9277C20.8835 18.3275 18.1187 16.7132 15.3633 15.085C15.0453 14.6242 15.0081 14.1418 15.2519 13.6377C17.3582 10.0563 19.4363 6.45667 21.4863 2.83887C22.3718 1.71063 23.5036 0.968441 24.8818 0.612303ZM23.4346 4.1748C24.935 6.58029 26.3823 9.02951 27.7764 11.5225C26.6355 13.5446 25.4665 15.5485 24.2695 17.5342C22.1266 16.3051 19.9928 15.0619 17.8681 13.8047C19.7671 10.619 21.6226 7.40901 23.4346 4.1748Z" fill="#2C833D"/>
<path opacity="0.881" fill-rule="evenodd" clip-rule="evenodd" d="M37.9072 6.62404C39.3705 6.61787 39.7972 7.28584 39.1875 8.62794C38.1393 9.21899 37.4529 8.94067 37.1279 7.79298C37.1918 7.26648 37.4516 6.87683 37.9072 6.62404Z" fill="#2C833D"/>
<path opacity="0.947" fill-rule="evenodd" clip-rule="evenodd" d="M-0.0556641 41.1357C-0.0556641 40.3935 -0.0556641 39.6514 -0.0556641 38.9092C0.155209 38.2634 0.43353 37.6325 0.779297 37.0166C2.63928 33.7975 4.5133 30.5875 6.40137 27.3867C5.36231 26.793 4.32324 26.1992 3.28418 25.6055C2.73427 24.7773 2.88271 24.1093 3.72949 23.6016C8.0405 22.4738 12.3452 21.3233 16.6436 20.1504C17.3205 19.9435 17.8215 20.1476 18.1465 20.7627C19.3612 25.232 20.5673 29.7036 21.7646 34.1777C21.596 35.125 21.0393 35.4962 20.0947 35.291C19.028 34.6927 17.9704 34.0804 16.9219 33.4541C15.8783 35.2631 14.8207 37.0629 13.749 38.8535C16.1612 38.8906 18.5732 38.9278 20.9854 38.9648C21.3934 39.1505 21.6346 39.4659 21.709 39.9111C21.7832 43.288 21.7832 46.6651 21.709 50.042C21.6246 50.5343 21.3463 50.8497 20.874 50.9883C16.4952 51.0625 12.1162 51.0625 7.7373 50.9883C6.18204 50.7308 4.93887 49.97 4.00781 48.7061C2.97609 46.8217 1.89991 44.9663 0.779297 43.1396C0.42174 42.4908 0.14342 41.8229 -0.0556641 41.1357ZM15.7529 22.7666C15.9385 22.7666 16.124 22.7666 16.3096 22.7666C17.0364 25.7112 17.8157 28.6428 18.6475 31.5615C18.6104 31.5986 18.5732 31.6358 18.5361 31.6728C17.8692 31.2465 17.1641 30.9125 16.4209 30.6709C16.0144 30.6979 15.699 30.8835 15.4746 31.2275C12.3934 36.6489 9.25765 42.0297 6.06738 47.3701C4.71167 45.2533 3.46852 43.0639 2.33789 40.8018C2.1921 39.9812 2.30342 39.2019 2.67188 38.4639C4.78711 34.8271 6.90234 31.1905 9.01758 27.5537C9.22295 27.1481 9.22295 26.74 9.01758 26.3291C8.47283 25.8959 7.89764 25.5063 7.29199 25.1602C10.1241 24.3597 12.9445 23.5619 15.7529 22.7666ZM12.4131 41.2471C14.751 41.2471 17.0889 41.2471 19.4268 41.2471C19.4268 43.7334 19.4268 46.2198 19.4268 48.7061C15.678 48.7431 11.9299 48.7061 8.18262 48.5947C9.59408 46.1425 11.0042 43.6933 12.4131 41.2471Z" fill="#2C833D"/>
<path opacity="0.951" fill-rule="evenodd" clip-rule="evenodd" d="M56.9441 39.7998C56.9441 40.542 56.9441 41.2841 56.9441 42.0264C56.7761 42.5468 56.5721 43.0663 56.3318 43.585C55.1072 45.6631 53.8826 47.7412 52.658 49.8193C51.8171 50.8241 50.7595 51.4736 49.4851 51.7676C45.2548 51.8232 41.0243 51.8418 36.7937 51.8232C36.8123 53.1226 36.7937 54.4214 36.7381 55.7197C36.3263 56.251 35.7881 56.418 35.1238 56.2207C31.8427 53.051 28.5956 49.8411 25.3826 46.5908C24.9344 46.0585 24.8973 45.5018 25.2713 44.9209C28.5184 41.6738 31.7654 38.4268 35.0125 35.1797C35.7374 34.8576 36.3127 35.0246 36.7381 35.6807C36.7937 37.0161 36.8123 38.352 36.7937 39.6885C38.8732 39.7256 40.9513 39.6885 43.0281 39.5772C41.8962 37.6103 40.7645 35.6436 39.6326 33.6768C39.5311 33.2368 39.6053 32.8286 39.8553 32.4522C42.6107 30.8239 45.3755 29.2096 48.1492 27.6094C49.0595 26.9826 49.8202 27.1125 50.4314 27.999C52.3537 31.4419 54.3206 34.856 56.3318 38.2412C56.5721 38.7599 56.7761 39.2794 56.9441 39.7998ZM48.7058 30.0029C50.6657 33.16 52.5582 36.37 54.3836 39.6328C51.5261 39.7071 48.6688 39.7071 45.8113 39.6328C44.661 37.666 43.5105 35.6993 42.3601 33.7324C44.4824 32.4863 46.5976 31.2431 48.7058 30.0029ZM34.3445 39.1318C34.4178 39.898 34.5105 40.6773 34.6228 41.4697C34.7528 41.6738 34.9197 41.8408 35.1238 41.9707C41.5441 41.9893 47.9639 42.045 54.3836 42.1377C53.2146 44.1787 52.0457 46.2198 50.8767 48.2607C50.26 49.0237 49.4622 49.4505 48.4832 49.541C44.0301 49.5781 39.5769 49.6153 35.1238 49.6523C34.9197 49.7823 34.7528 49.9493 34.6228 50.1533C34.496 50.8142 34.4219 51.4821 34.4002 52.1572C32.2293 49.9863 30.0584 47.8154 27.8875 45.6445C30.0623 43.4883 32.2146 41.3174 34.3445 39.1318Z" fill="#2C833D"/>
</g>
<defs>
<clipPath id="clip0_2007_1773">
<rect width="57" height="57" fill="white"/>
</clipPath>
</defs>
</svg>
