<svg width="57" height="57" viewBox="0 0 57 57" fill="none" xmlns="http://www.w3.org/2000/svg">
<g clip-path="url(#clip0_2009_1782)">
<path opacity="0.98" fill-rule="evenodd" clip-rule="evenodd" d="M56.9443 36.2373C56.9443 39.7627 56.9443 43.2881 56.9443 46.8135C56.7816 46.9201 56.6332 47.0499 56.499 47.2031C54.3457 47.2217 52.1934 47.2774 50.042 47.3701C50.9966 49.7382 51.3491 52.1874 51.0996 54.7178C50.9528 54.939 50.7487 55.0689 50.4873 55.1074C33.9365 55.1817 17.3858 55.1817 0.834961 55.1074C0.573591 55.0689 0.369489 54.939 0.222656 54.7178C0.122225 54.1841 0.0294515 53.6645 -0.0556641 53.1592C-0.0556641 52.5655 -0.0556641 51.9716 -0.0556641 51.3779C0.293076 47.7297 2.03722 44.9651 5.17676 43.084C7.60172 42.1684 9.9025 41.018 12.0791 39.6328C14.2616 38.0959 16.1542 36.259 17.7568 34.1221C17.4599 33.7138 17.1631 33.3057 16.8662 32.8975C14.158 32.8047 11.449 32.7491 8.73926 32.7305C8.42383 32.6377 8.21972 32.4336 8.12695 32.1182C8.07134 31.414 8.05279 30.709 8.07129 30.0029C5.87977 29.5369 4.56239 28.201 4.11914 25.9951C4.04492 24.4365 4.04492 22.8779 4.11914 21.3193C4.50418 19.0789 5.803 17.7059 8.01562 17.2002C8.99247 10.3621 12.6478 5.59359 18.9814 2.89454C25.4055 0.724264 31.2688 1.72621 36.5713 5.9004C39.9458 8.9191 41.9311 12.6857 42.5273 17.2002C45.5613 18.2168 46.8415 20.3321 46.3682 23.5459C46.7441 25.7767 46.1132 27.6507 44.4756 29.168C43.8052 29.639 43.0629 29.9358 42.249 30.0586C41.1617 30.164 40.0855 30.1268 39.0205 29.9473C38.9278 29.8545 38.8349 29.7617 38.7422 29.669C38.6679 25.6611 38.6679 21.6533 38.7422 17.6455C38.8721 17.5156 39.0019 17.3858 39.1318 17.2559C39.6501 17.2003 40.1695 17.1817 40.6904 17.2002C39.5684 10.7536 35.9316 6.43031 29.7803 4.23047C23.6701 2.64532 18.3821 4.07404 13.916 8.51661C11.7097 10.9815 10.3552 13.8575 9.85254 17.1445C10.335 17.1816 10.8174 17.2188 11.2998 17.2559C11.5411 17.3486 11.708 17.5156 11.8008 17.7568C11.875 21.6533 11.875 25.5498 11.8008 29.4463C11.708 29.7617 11.5039 29.9659 11.1885 30.0586C10.782 30.1142 10.3737 30.1326 9.96387 30.1143C9.96387 30.4112 9.96387 30.708 9.96387 31.0049C11.8568 31.0235 13.7494 31.0049 15.6416 30.9492C14.8939 29.5458 14.0219 28.2285 13.0254 26.9971C12.4445 25.9164 12.2589 24.7661 12.4688 23.5459C12.6539 22.7676 12.9322 22.0255 13.3037 21.3193C12.9187 18.9548 12.8631 16.5799 13.1367 14.1943C13.2043 13.1397 13.3527 12.1007 13.582 11.0772C18.8239 6.43967 24.7428 5.34495 31.3389 7.79297C33.1436 8.48814 34.7763 9.45298 36.2373 10.6875C36.9381 11.5756 37.2906 12.596 37.2949 13.749C37.4232 16.2377 37.2562 18.7054 36.7939 21.1523C38.3072 23.3462 38.2516 25.5171 36.627 27.665C35.8052 30.0338 34.5992 32.1676 33.0088 34.0664C34.9589 36.5175 37.1855 38.6884 39.6885 40.5791C39.7812 39.1704 39.8369 37.7603 39.8555 36.3486C39.9482 36.1074 40.1152 35.9404 40.3564 35.8477C45.7002 35.7734 51.0439 35.7734 56.3877 35.8477C56.5906 35.9587 56.7762 36.0886 56.9443 36.2373ZM23.4346 8.29395C27.8475 8.05181 31.7625 9.31354 35.1797 12.0791C35.3536 12.3526 35.4649 12.6496 35.5137 12.9697C35.5493 13.4733 35.605 13.9742 35.6807 14.4727C35.6436 14.5654 35.6064 14.6582 35.5693 14.751C32.9005 13.1927 30.0802 12.8403 27.1084 13.6934C25.836 14.1997 24.6114 14.7935 23.4346 15.4746C21.6308 16.1111 19.7753 16.5007 17.8682 16.6436C16.8158 16.6736 15.9066 16.3396 15.1406 15.6416C15.0432 15.4888 14.9875 15.3218 14.9736 15.1406C15.073 14.3068 15.1658 13.4718 15.252 12.6357C15.2623 12.3566 15.355 12.1154 15.5303 11.9121C17.8386 9.98642 20.4732 8.78035 23.4346 8.29395ZM29.4463 14.9736C31.7158 14.92 33.7382 15.5879 35.5137 16.9775C35.4844 18.5112 35.3174 20.0327 35.0127 21.542C35.4687 22.2042 35.8583 22.9093 36.1816 23.6572C36.2834 24.2729 36.2091 24.8666 35.959 25.4385C34.9232 27.5848 33.7727 29.6628 32.5078 31.6729C31.477 33.2233 30.1596 34.4664 28.5557 35.4024C24.8449 36.7511 21.7277 35.8976 19.2041 32.8418C20.0197 32.7861 20.8361 32.7677 21.6533 32.7861C21.6348 33.307 21.6534 33.8265 21.709 34.3447C21.8389 34.4747 21.9687 34.6045 22.0986 34.7344C24.0655 34.8086 26.0322 34.8086 27.999 34.7344C28.2403 34.6416 28.4073 34.4747 28.5 34.2334C28.5743 32.6006 28.5743 30.9678 28.5 29.335C28.3701 29.205 28.2403 29.0752 28.1104 28.9453C26.1064 28.8711 24.1025 28.8711 22.0986 28.9453C21.9687 29.0752 21.8389 29.205 21.709 29.335C21.6534 29.8904 21.6348 30.447 21.6533 31.0049C20.3911 31.0235 19.1293 31.0049 17.8682 30.9492C16.9721 29.3232 15.9515 27.7832 14.8066 26.3291C14.1444 25.3268 14.0702 24.2878 14.584 23.2119C14.8066 22.8409 15.0293 22.4697 15.252 22.0986C15.1165 20.8433 14.9865 19.5815 14.8623 18.3135C14.8994 18.1651 14.9366 18.0166 14.9736 17.8682C16.7803 18.6074 18.6358 18.7372 20.54 18.2578C22.0058 17.9843 23.4159 17.539 24.7705 16.9219C26.1725 15.8675 27.7311 15.2181 29.4463 14.9736ZM8.29395 19.0928C8.88769 19.0928 9.48145 19.0928 10.0752 19.0928C10.0752 22.1357 10.0752 25.1788 10.0752 28.2217C8.08198 28.5347 6.7646 27.7554 6.12305 25.8838C6.04882 24.3623 6.04882 22.8409 6.12305 21.3193C6.49615 20.2228 7.21978 19.4805 8.29395 19.0928ZM40.4678 19.0928C42.4303 18.7432 43.7476 19.4854 44.4199 21.3193C44.4942 22.8779 44.4942 24.4365 44.4199 25.9951C43.7184 27.7848 42.401 28.5271 40.4678 28.2217C40.4678 25.1788 40.4678 22.1357 40.4678 19.0928ZM23.4346 30.6709C24.5108 30.6709 25.5869 30.6709 26.6631 30.6709C26.6631 31.4502 26.6631 32.2295 26.6631 33.0088C25.5869 33.0088 24.5108 33.0088 23.4346 33.0088C23.583 32.2295 23.583 31.4502 23.4346 30.6709ZM19.0928 35.458C22.504 38.2648 26.1778 38.6545 30.1143 36.627C30.6454 36.2776 31.1464 35.888 31.6172 35.458C31.9489 35.8826 32.3014 36.2909 32.6748 36.6826C31.3471 37.4048 29.9741 38.0542 28.5557 38.6309C26.2178 38.7051 23.8799 38.7051 21.542 38.6309C20.3192 38.0567 19.1317 37.4258 17.9795 36.7383C18.4155 36.3587 18.7865 35.9319 19.0928 35.458ZM41.5811 37.6846C46.1084 37.6846 50.6357 37.6846 55.1631 37.6846C55.1631 40.2822 55.1631 42.8799 55.1631 45.4775C52.1199 45.459 49.0769 45.4775 46.0342 45.5332C45.5332 45.8858 45.1065 46.3125 44.7539 46.8135C44.8402 46.1869 44.5989 45.7601 44.0303 45.5332C43.2147 45.4775 42.3983 45.4591 41.5811 45.4775C41.6403 42.8838 41.6403 40.2861 41.5811 37.6846ZM16.5322 38.2412C17.8375 38.8382 19.1364 39.4689 20.4287 40.1338C20.9429 41.1381 21.4254 42.1586 21.876 43.1953C21.5755 44.6605 21.26 46.1264 20.9297 47.5928C18.5882 45.2341 16.5658 42.6365 14.8623 39.7998C15.4438 39.3053 16.0004 38.7858 16.5322 38.2412ZM34.0107 38.2412C34.5115 38.7233 35.0311 39.1872 35.5693 39.6328C33.4928 42.5266 31.2478 45.2912 28.834 47.9268C28.6162 46.4632 28.4122 44.9974 28.2217 43.5293C28.5883 42.443 29.0336 41.3853 29.5576 40.3565C31.0487 39.6479 32.5331 38.9428 34.0107 38.2412ZM22.6553 40.4678C24.2514 40.4492 25.8472 40.4678 27.4424 40.5234C27.1827 41.0801 26.9228 41.6367 26.6631 42.1934C25.5869 42.2676 24.5108 42.2676 23.4346 42.1934C23.1591 41.624 22.8994 41.0489 22.6553 40.4678ZM13.1924 40.9131C13.3033 40.9035 13.396 40.9407 13.4707 41.0244C15.8529 45.0033 18.8403 48.4731 22.4326 51.4336C23.5033 52.3224 24.7279 52.6935 26.1064 52.5469C26.9246 52.1754 27.6668 51.6929 28.333 51.0996C31.5378 47.9337 34.4509 44.5382 37.0723 40.9131C37.8951 41.6121 38.7672 42.243 39.6885 42.8057C39.7485 44.1506 39.8413 45.4866 39.9668 46.8135C40.0595 46.9062 40.1524 46.9991 40.2451 47.0918C41.135 47.1475 42.0256 47.1659 42.917 47.1475C42.8985 48.0389 42.917 48.9295 42.9727 49.8193C43.5531 50.4066 44.1469 50.4066 44.7539 49.8193C45.3899 48.9744 46.0393 48.1394 46.7021 47.3145C47.152 47.2224 47.5973 47.241 48.0381 47.3701C48.9749 49.2623 49.4202 51.2662 49.374 53.3818C33.4912 53.3818 17.6084 53.3818 1.72559 53.3818C1.34217 49.5679 2.75232 46.6547 5.95605 44.6426C7.83977 43.8537 9.69523 43.0002 11.5225 42.082C12.1254 41.7447 12.6821 41.3551 13.1924 40.9131ZM23.5459 44.0303C24.5108 44.0303 25.4755 44.0303 26.4404 44.0303C26.6596 45.8771 26.9194 47.714 27.2197 49.541C26.6152 50.1102 25.9287 50.537 25.1602 50.8213C24.1074 50.5091 23.2354 49.934 22.5439 49.0957C22.8854 47.407 23.2194 45.7185 23.5459 44.0303Z" fill="#2C833D"/>
<path opacity="0.983" fill-rule="evenodd" clip-rule="evenodd" d="M42.9168 39.0205C46.5537 39.0019 50.1904 39.0205 53.827 39.0762C54.3043 39.496 54.3971 39.997 54.1053 40.5791C53.9749 40.7342 53.8079 40.827 53.6043 40.8574C50.1161 40.9317 46.6277 40.9317 43.1395 40.8574C42.5169 40.59 42.3128 40.1261 42.5272 39.4658C42.6803 39.3317 42.8102 39.1833 42.9168 39.0205Z" fill="#2C833D"/>
<path opacity="0.983" fill-rule="evenodd" clip-rule="evenodd" d="M43.0281 42.1377C46.6279 42.1191 50.2275 42.1377 53.8269 42.1934C54.3043 42.6132 54.397 43.1142 54.1052 43.6963C53.9749 43.8514 53.8079 43.9442 53.6043 43.9746C50.116 44.0489 46.6277 44.0489 43.1394 43.9746C42.4667 43.6536 42.2997 43.1526 42.6384 42.4717C42.7659 42.3452 42.8958 42.2339 43.0281 42.1377Z" fill="#2C833D"/>
</g>
<defs>
<clipPath id="clip0_2009_1782">
<rect width="57" height="57" fill="white"/>
</clipPath>
</defs>
</svg>
