<svg width="74" height="44" viewBox="0 0 74 44" fill="none" xmlns="http://www.w3.org/2000/svg">
<path opacity="0.936" fill-rule="evenodd" clip-rule="evenodd" d="M74 22.8516C74 27.3926 74 31.9336 74 36.4746C73.6008 37.5334 72.8684 38.2902 71.8027 38.7452C69.9554 38.9076 68.0999 39.0298 66.2363 39.1114C65.157 42.6535 62.7645 44.2405 59.0586 43.8721C56.4358 43.2268 54.8245 41.5912 54.2246 38.9649C51.5879 38.9649 48.9512 38.9649 46.3145 38.9649C45.5563 42.115 43.5542 43.7751 40.3086 43.9453C37.0641 43.7766 35.0623 42.1165 34.3027 38.9649C32.4961 38.9649 30.6894 38.9649 28.8828 38.9649C28.1246 42.115 26.1226 43.7751 22.877 43.9453C19.6325 43.7766 17.6306 42.1165 16.8711 38.9649C13.0134 38.9893 9.15594 38.9649 5.29883 38.8916C4.79535 38.7298 4.42914 38.4123 4.2002 37.9395C2.476 32.7424 0.742593 27.5666 -1 22.4121C-1 21.582 -1 20.752 -1 19.9219C-0.718533 19.1637 -0.352322 18.4313 0.0986328 17.7246C1.80762 15.4297 3.5166 13.1349 5.22559 10.8399C6.96153 10.232 7.54747 10.8179 6.9834 12.5977C5.22559 14.9414 3.46777 17.2852 1.70996 19.6289C1.35485 20.3716 1.25719 21.1528 1.41699 21.9727C3.01959 26.8537 4.60651 31.7365 6.17773 36.6211C6.97977 36.7062 7.73659 36.6085 8.44824 36.3282C11.6136 25.0015 14.763 13.6735 17.8965 2.34379C16.7724 2.31947 15.6493 2.34379 14.5273 2.41703C13.0004 4.49418 11.4379 6.54496 9.83984 8.56937C8.82293 8.964 8.18817 8.62225 7.93555 7.54398C8.03754 7.26669 8.15961 6.99818 8.30176 6.73832C9.71778 4.83402 11.1338 2.92972 12.5498 1.02543C12.8258 0.602966 13.192 0.285535 13.6484 0.0732788C26.1484 -0.0244263 38.6485 -0.0244263 51.1484 0.0732788C51.755 0.289197 52.17 0.704187 52.3936 1.3184C52.4668 3.85697 52.4913 6.39598 52.4668 8.93558C55.6899 8.91112 58.9125 8.93558 62.1348 9.00883C63.0523 9.13788 63.8092 9.55302 64.4053 10.2539C64.8865 10.9796 65.4236 11.6631 66.0166 12.3047C66.5539 13.4126 66.2365 14.0962 65.0645 14.3555C64.8538 14.3234 64.6585 14.2502 64.4785 14.1358C63.8126 13.4214 63.2022 12.6645 62.6475 11.8653C62.4162 11.6395 62.1475 11.4686 61.8418 11.3526C60.7199 11.2793 59.5968 11.255 58.4727 11.2793C58.4482 14.6977 58.4727 18.1156 58.5459 21.5332C58.6313 21.7533 58.7533 21.9485 58.9121 22.1192C62.861 22.2888 66.8161 22.3131 70.7773 22.1924C69.525 20.6962 68.3289 19.1581 67.1885 17.5782C67.0446 16.6941 67.4108 16.157 68.2871 15.9668C68.6548 16.0156 68.9722 16.1621 69.2393 16.4063C70.6553 18.2129 72.0712 20.0196 73.4873 21.8262C73.665 22.1814 73.8358 22.5233 74 22.8516ZM20.3867 2.34379C30.2989 2.34379 40.2109 2.34379 50.123 2.34379C50.123 13.7696 50.123 25.1953 50.123 36.6211C48.8535 36.6211 47.584 36.6211 46.3145 36.6211C45.5091 33.5529 43.5072 31.8926 40.3086 31.6407C37.2058 31.9137 35.2039 33.525 34.3027 36.4746C32.4988 36.621 30.692 36.6698 28.8828 36.6211C28.0774 33.5529 26.0756 31.8926 22.877 31.6407C19.7778 31.9093 17.7759 33.5206 16.8711 36.4746C14.8716 36.621 12.8696 36.6699 10.8652 36.6211C14.039 25.1955 17.2128 13.7697 20.3867 2.34379ZM52.4668 11.2793C53.6875 11.2793 54.9083 11.2793 56.1289 11.2793C56.1044 14.7953 56.1289 18.3109 56.2021 21.8262C56.393 23.2115 57.1499 24.1149 58.4727 24.5362C62.9158 24.6094 67.3591 24.6339 71.8027 24.6094C71.8027 25.2441 71.8027 25.879 71.8027 26.5137C70.3225 26.4479 68.8577 26.5212 67.4082 26.7334C67.0698 26.9732 66.8501 27.2907 66.749 27.6856C66.6513 29.4434 66.6513 31.2012 66.749 32.959C66.8501 33.3539 67.0698 33.6714 67.4082 33.9112C68.8577 34.1234 70.3225 34.1967 71.8027 34.1309C71.8256 34.7288 71.7523 35.3148 71.583 35.8887C71.461 36.2061 71.2413 36.4259 70.9238 36.5479C69.3591 36.6698 67.7965 36.6454 66.2363 36.4746C64.6423 32.2842 61.7126 30.8926 57.4473 32.2998C55.7154 33.2485 54.6412 34.6889 54.2246 36.6211C53.6387 36.6211 53.0527 36.6211 52.4668 36.6211C52.4668 28.1738 52.4668 19.7266 52.4668 11.2793ZM69.0195 28.711C69.9472 28.711 70.875 28.711 71.8027 28.711C71.8027 29.7364 71.8027 30.7618 71.8027 31.7871C70.875 31.7871 69.9472 31.7871 69.0195 31.7871C69.0195 30.7618 69.0195 29.7364 69.0195 28.711ZM22.584 33.9844C25.4067 34.1945 26.7494 35.7081 26.6123 38.5254C25.9701 40.7874 24.4808 41.7884 22.1445 41.5284C19.716 40.7584 18.7638 39.1228 19.2881 36.6211C19.9443 35.1564 21.043 34.2775 22.584 33.9844ZM40.0156 33.9844C42.8384 34.1945 44.1811 35.7081 44.0439 38.5254C43.3607 40.8327 41.8227 41.8336 39.4297 41.5284C36.6871 40.3805 35.9302 38.4519 37.1592 35.7422C37.8816 34.7596 38.8338 34.1737 40.0156 33.9844ZM59.9375 33.9844C62.9185 34.3511 64.2124 36.0112 63.8193 38.9649C62.5634 41.5682 60.6346 42.2274 58.0332 40.9424C56.1671 39.2491 55.9474 37.3692 57.374 35.3028C58.1107 34.6051 58.9651 34.1656 59.9375 33.9844Z" fill="#2C833D"/>
</svg>
