<svg width="50" height="50" viewBox="0 0 50 50" fill="none" xmlns="http://www.w3.org/2000/svg">
<g clip-path="url(#clip0_2007_1755)">
<path opacity="0.964" fill-rule="evenodd" clip-rule="evenodd" d="M4.3457 -0.0488281C5.38737 -0.0488281 6.42903 -0.0488281 7.4707 -0.0488281C11.6123 1.39891 12.9958 4.23094 11.6211 8.44726C10.9715 9.61819 10.1089 10.611 9.0332 11.4258C7.54417 12.5238 6.11188 13.6957 4.73633 14.9414C6.94987 14.9739 9.16341 15.0065 11.377 15.0391C12.5938 15.4983 12.9356 16.3284 12.4023 17.5293C12.1812 17.8157 11.9045 18.0273 11.5723 18.1641C8.05664 18.2292 4.54102 18.2292 1.02539 18.1641C0.551317 17.9339 0.193245 17.5921 -0.0488281 17.1387C-0.0488281 16.8132 -0.0488281 16.4876 -0.0488281 16.1621C0.866455 14.3169 2.13599 12.7382 3.75977 11.4258C5.33038 10.2462 6.84405 8.99295 8.30078 7.66602C9.27593 6.18847 9.12944 4.83755 7.86133 3.61328C6.41546 2.82649 5.03199 2.90787 3.71094 3.85742C3.46898 4.17863 3.30623 4.5367 3.22266 4.93164C3.19966 5.47246 3.15083 6.00957 3.07617 6.54297C2.6472 7.39151 1.9636 7.68448 1.02539 7.42187C0.467296 7.17409 0.109223 6.7672 -0.0488281 6.20117C-0.0488281 5.68034 -0.0488281 5.1595 -0.0488281 4.63867C0.404978 2.13393 1.86982 0.57143 4.3457 -0.0488281Z" fill="#2C833D"/>
<path opacity="0.967" fill-rule="evenodd" clip-rule="evenodd" d="M20.947 -0.0488281C21.4353 -0.0488281 21.9236 -0.0488281 22.4119 -0.0488281C22.8136 0.207154 23.0903 0.565227 23.242 1.02539C23.2908 4.28044 23.3071 7.53564 23.2908 10.791C25.046 10.6415 25.7459 11.4228 25.3904 13.1348C25.127 13.6168 24.7201 13.8936 24.1697 13.9648C23.8785 14.0135 23.5855 14.0298 23.2908 14.0137C23.3331 15.1279 23.2842 16.2348 23.1443 17.334C22.5388 18.2342 21.7413 18.4457 20.7517 17.9688C20.536 17.7858 20.357 17.5742 20.2146 17.334C20.0747 16.2348 20.0258 15.1279 20.0681 14.0137C17.4637 14.03 14.8596 14.0137 12.2556 13.9648C11.0956 13.6146 10.6886 12.8496 11.0349 11.6699C14.0064 8.03862 17.0012 4.42534 20.0193 0.830078C20.3183 0.514435 20.6276 0.221466 20.947 -0.0488281ZM19.9705 5.9082C20.0678 7.51871 20.1004 9.14632 20.0681 10.791C18.7006 10.8073 17.3334 10.791 15.9666 10.7422C17.3218 9.14322 18.6565 7.53189 19.9705 5.9082Z" fill="#2C833D"/>
<path opacity="0.964" fill-rule="evenodd" clip-rule="evenodd" d="M49.9512 22.8027C49.9512 24.2676 49.9512 25.7324 49.9512 27.1973C48.9687 35.7763 44.802 42.3029 37.4512 46.7773C34.4468 48.4353 31.2566 49.4933 27.8809 49.9512C25.9277 49.9512 23.9746 49.9512 22.0215 49.9512C12.8838 48.5755 6.2594 43.7578 2.14844 35.498C0.986143 32.8663 0.25372 30.1319 -0.0488281 27.2949C-0.0488281 26.3509 -0.0488281 25.4069 -0.0488281 24.4629C0.755402 23.2117 1.71569 23.0814 2.83203 24.0723C3.01231 24.372 3.10997 24.6975 3.125 25.0488C3.443 33.4857 7.20276 39.8497 14.4043 44.1406C20.7929 47.4286 27.3033 47.6891 33.9355 44.9219C39.7538 42.098 43.7089 37.6222 45.8008 31.4941C47.9303 23.7811 46.4654 16.8475 41.4062 10.6934C37.6897 6.53162 33.0511 4.07394 27.4902 3.32031C26.5556 2.931 26.2138 2.23112 26.4648 1.2207C26.7641 0.549553 27.285 0.191479 28.0273 0.146484C37.1242 1.56571 43.6997 6.38343 47.7539 14.5996C48.9161 17.2311 49.6485 19.9654 49.9512 22.8027Z" fill="#2C833D"/>
<path opacity="0.961" fill-rule="evenodd" clip-rule="evenodd" d="M34.6189 9.7168C36.3844 9.74019 36.9865 10.5865 36.4256 12.2559C28.6294 20.0521 20.8331 27.8483 13.0369 35.6445C11.971 36.196 11.1409 35.9519 10.5467 34.9121C10.4401 34.3655 10.5053 33.8447 10.742 33.3496C18.5056 25.5859 26.2693 17.8223 34.033 10.0586C34.2217 9.91611 34.417 9.80225 34.6189 9.7168Z" fill="#2C833D"/>
<path opacity="0.962" fill-rule="evenodd" clip-rule="evenodd" d="M29.6386 22.9981C32.9591 22.9818 36.2794 22.9981 39.5995 23.0469C40.7131 23.6541 40.9572 24.5168 40.3319 25.6348C37.1175 30.5986 33.9273 35.5791 30.7616 40.5762C30.1976 41.348 29.4651 41.5596 28.5644 41.211C27.8044 40.6948 27.5602 39.9949 27.8319 39.1113C30.5461 34.8059 33.2967 30.5253 36.0839 26.2695C34.0331 26.237 31.9823 26.2044 29.9315 26.1719C29.0604 26.0168 28.6047 25.496 28.5644 24.6094C28.5945 23.848 28.9525 23.3109 29.6386 22.9981Z" fill="#2C833D"/>
</g>
<defs>
<clipPath id="clip0_2007_1755">
<rect width="50" height="50" fill="white"/>
</clipPath>
</defs>
</svg>
